<svg width="152" height="48" fill="none" xmlns="http://www.w3.org/2000/svg"><path d="M86.65 10.576c2.198 0 3.883-1.567 3.883-3.74s-1.685-3.74-3.883-3.74c-2.197 0-3.882 1.567-3.882 3.74s1.685 3.74 3.882 3.74zm3.016 29.464V14.772h-6.031V40.04h6.031zm-18.653 0c4.243-6.47 7.667-14.806 9.403-25.268h-6.184c-1.174 7.682-2.861 13.242-5.672 18.142-2.758-4.9-4.445-10.46-5.619-18.142h-6.339c1.74 10.462 5.214 18.799 9.403 25.268h5.008zm54.934-.353v-5.011a13.744 13.744 0 01-3.467.506c-2.504 0-3.424-1.012-3.424-4.296V19.81h7.307l1.994-5.053h-9.309V7.189l-6.029 1.77v23.349c0 5.51 3.576 8.239 8.432 8.239a11.848 11.848 0 004.496-.86zm-25.6-12.28c0-5.156 2.4-7.835 7.101-7.835 1.127.002 2.247.173 3.323.506v-5.103a11.157 11.157 0 00-3.384-.557c-3.118 0-5.467 1.364-7.051 3.74v-3.386H94.32V40.04h6.027V27.407zm37.098 8.59c-2.608 0-4.037-1.516-4.037-3.428 0-2.073 1.635-3.587 5.467-3.587 1.302.01 2.602.128 3.885.353v1.87c0 2.97-2.504 4.792-5.315 4.792zm14.4 3.893v-4.397c-2.557.304-3.466-.556-3.466-2.73v-9.955c0-6.166-3.936-8.543-11.091-8.543a32.89 32.89 0 00-6.485.657l-2.083 5.306a37.706 37.706 0 017.92-1.01c4 0 6.133 1.214 6.133 4.044v1.77a25.967 25.967 0 00-4.72-.457c-7.053 0-10.477 3.64-10.477 8.036 0 4.296 3.373 7.936 8.84 7.936 3.221 0 5.675-1.319 7.155-3.336 1.538 2.576 4.861 3.74 8.285 2.679h-.011zM48.339 23.902c-3.096-.59-4.654-2.007-5.008-3.768-.355-1.762.533-3.661 3.168-5.378-3.088.625-5.067-.092-6.086-1.582-1.018-1.49-.92-3.592.84-6.164-2.61 1.749-4.722 1.846-6.234.836-1.512-1.01-2.24-2.962-1.6-6.016-1.736 2.6-3.656 3.482-5.438 3.13C26.2 4.61 24.765 3.055 24.168 0c-.597 3.06-2.027 4.6-3.81 4.95-1.785.351-3.702-.527-5.438-3.13.632 3.054-.093 5.01-1.6 6.016C11.813 8.84 9.693 8.748 7.083 7c1.768 2.582 1.866 4.673.845 6.168-1.021 1.496-2.995 2.213-6.083 1.583 2.63 1.717 3.52 3.613 3.166 5.377-.355 1.765-1.918 3.184-5.011 3.774 3.093.591 4.653 2.007 5.005 3.77.352 1.761-.533 3.662-3.165 5.38 3.088-.628 5.067.092 6.083 1.582s.922 3.584-.846 6.166c2.611-1.749 4.726-1.846 6.238-.836 1.512 1.01 2.237 2.964 1.6 6.018 1.736-2.603 3.653-3.483 5.437-3.133 1.784.351 3.213 1.891 3.81 4.953.598-3.062 2.03-4.602 3.814-4.953 1.784-.35 3.701.528 5.437 3.133-.634-3.054.094-5.01 1.6-6.018 1.507-1.008 3.624-.913 6.235.836-1.765-2.582-1.867-4.673-.845-6.166 1.021-1.493 2.997-2.215 6.085-1.583-2.632-1.717-3.523-3.615-3.168-5.38.355-1.764 1.933-3.178 5.019-3.769zm-21 15.738c-3.147.619-6.41.301-9.374-.913a16.187 16.187 0 01-7.281-5.91 15.92 15.92 0 01-2.735-8.915c0-3.173.951-6.275 2.734-8.914a16.187 16.187 0 017.281-5.91 16.391 16.391 0 019.374-.913 16.28 16.28 0 018.307 4.391 15.992 15.992 0 014.44 8.216 15.902 15.902 0 01-2.422 12.045 16.234 16.234 0 01-10.324 6.823z" fill="#fff"/></svg>